<mxfile host="app.diagrams.net" modified="2024-07-17T11:56:37.677Z" agent="Mozilla/5.0 (Windows NT 10.0; Win64; x64) AppleWebKit/537.36 (KHTML, like Gecko) Chrome/126.0.0.0 Safari/537.36" etag="1cH0Tnd9IEuuSCdMcYmZ" version="24.7.0" type="device">
  <diagram name="Page-1" id="LvDZysWX-mrisf2uEd7I">
    <mxGraphModel dx="1235" dy="1714" grid="1" gridSize="10" guides="1" tooltips="1" connect="1" arrows="1" fold="1" page="1" pageScale="1" pageWidth="850" pageHeight="1100" math="0" shadow="0">
      <root>
        <mxCell id="0" />
        <mxCell id="1" parent="0" />
        <mxCell id="cfagDybKH4BVyeTPszlw-12" style="edgeStyle=orthogonalEdgeStyle;rounded=0;orthogonalLoop=1;jettySize=auto;html=1;entryX=0;entryY=0.5;entryDx=0;entryDy=0;entryPerimeter=0;flowAnimation=1;" edge="1" parent="1" source="cfagDybKH4BVyeTPszlw-1" target="cfagDybKH4BVyeTPszlw-5">
          <mxGeometry relative="1" as="geometry">
            <mxPoint x="390" y="310" as="targetPoint" />
          </mxGeometry>
        </mxCell>
        <mxCell id="cfagDybKH4BVyeTPszlw-1" value="Splunk Server&lt;div&gt;IP:192.168.10.10&lt;/div&gt;" style="sketch=0;outlineConnect=0;fontColor=#232F3E;gradientColor=none;fillColor=#232F3D;strokeColor=none;dashed=0;verticalLabelPosition=bottom;verticalAlign=top;align=center;html=1;fontSize=12;fontStyle=0;aspect=fixed;pointerEvents=1;shape=mxgraph.aws4.traditional_server;" vertex="1" parent="1">
          <mxGeometry x="170" y="130" width="45" height="78" as="geometry" />
        </mxCell>
        <mxCell id="cfagDybKH4BVyeTPszlw-16" style="edgeStyle=orthogonalEdgeStyle;rounded=0;orthogonalLoop=1;jettySize=auto;html=1;endArrow=none;endFill=0;dashed=1;dashPattern=1 4;fillColor=#d5e8d4;strokeColor=#82b366;flowAnimation=1;" edge="1" parent="1" source="cfagDybKH4BVyeTPszlw-2" target="cfagDybKH4BVyeTPszlw-1">
          <mxGeometry relative="1" as="geometry" />
        </mxCell>
        <mxCell id="cfagDybKH4BVyeTPszlw-2" value="Active Directory&lt;div&gt;IP:192.168.10.7&lt;/div&gt;&lt;div&gt;Splunk Universal Forwarder&lt;/div&gt;&lt;div&gt;Sysmon&lt;/div&gt;" style="sketch=0;outlineConnect=0;fontColor=#232F3E;gradientColor=none;fillColor=#232F3D;strokeColor=none;dashed=0;verticalLabelPosition=bottom;verticalAlign=top;align=center;html=1;fontSize=12;fontStyle=0;aspect=fixed;pointerEvents=1;shape=mxgraph.aws4.traditional_server;" vertex="1" parent="1">
          <mxGeometry x="170" y="320" width="45" height="78" as="geometry" />
        </mxCell>
        <mxCell id="cfagDybKH4BVyeTPszlw-15" style="rounded=0;orthogonalLoop=1;jettySize=auto;html=1;dashed=1;dashPattern=1 4;endArrow=none;endFill=0;fillColor=#d5e8d4;strokeColor=#82b366;flowAnimation=1;" edge="1" parent="1" source="cfagDybKH4BVyeTPszlw-3" target="cfagDybKH4BVyeTPszlw-1">
          <mxGeometry relative="1" as="geometry" />
        </mxCell>
        <mxCell id="cfagDybKH4BVyeTPszlw-3" value="Windows 10&lt;div&gt;IP: DHCP&lt;/div&gt;&lt;div&gt;Splunk Universal Forwarder&lt;/div&gt;&lt;div&gt;Sysmon&lt;/div&gt;&lt;div&gt;Atomic Red Team&lt;/div&gt;" style="verticalLabelPosition=bottom;html=1;verticalAlign=top;align=center;strokeColor=none;fillColor=#00BEF2;shape=mxgraph.azure.computer;pointerEvents=1;" vertex="1" parent="1">
          <mxGeometry x="400" y="450" width="50" height="45" as="geometry" />
        </mxCell>
        <mxCell id="cfagDybKH4BVyeTPszlw-4" value="Kali Linux&lt;div&gt;IP:192.168.10.250&lt;/div&gt;" style="verticalLabelPosition=bottom;html=1;verticalAlign=top;align=center;strokeColor=#b85450;fillColor=#f8cecc;shape=mxgraph.azure.computer;pointerEvents=1;" vertex="1" parent="1">
          <mxGeometry x="620" y="282.5" width="50" height="45" as="geometry" />
        </mxCell>
        <mxCell id="cfagDybKH4BVyeTPszlw-5" value="" style="sketch=0;points=[[0.015,0.015,0],[0.985,0.015,0],[0.985,0.985,0],[0.015,0.985,0],[0.25,0,0],[0.5,0,0],[0.75,0,0],[1,0.25,0],[1,0.5,0],[1,0.75,0],[0.75,1,0],[0.5,1,0],[0.25,1,0],[0,0.75,0],[0,0.5,0],[0,0.25,0]];verticalLabelPosition=bottom;html=1;verticalAlign=top;aspect=fixed;align=center;pointerEvents=1;shape=mxgraph.cisco19.rect;prIcon=l2_switch;fillColor=#FAFAFA;strokeColor=#005073;" vertex="1" parent="1">
          <mxGeometry x="400" y="280" width="50" height="50" as="geometry" />
        </mxCell>
        <mxCell id="cfagDybKH4BVyeTPszlw-11" style="edgeStyle=orthogonalEdgeStyle;rounded=0;orthogonalLoop=1;jettySize=auto;html=1;flowAnimation=1;" edge="1" parent="1" source="cfagDybKH4BVyeTPszlw-6" target="cfagDybKH4BVyeTPszlw-7">
          <mxGeometry relative="1" as="geometry" />
        </mxCell>
        <mxCell id="cfagDybKH4BVyeTPszlw-6" value="" style="points=[[0.5,0,0],[1,0.5,0],[0.5,1,0],[0,0.5,0],[0.145,0.145,0],[0.8555,0.145,0],[0.855,0.8555,0],[0.145,0.855,0]];verticalLabelPosition=bottom;html=1;verticalAlign=top;aspect=fixed;align=center;pointerEvents=1;shape=mxgraph.cisco19.rect;prIcon=router;fillColor=#FAFAFA;strokeColor=#005073;" vertex="1" parent="1">
          <mxGeometry x="400" y="150" width="50" height="50" as="geometry" />
        </mxCell>
        <mxCell id="cfagDybKH4BVyeTPszlw-7" value="Internet" style="ellipse;shape=cloud;whiteSpace=wrap;html=1;" vertex="1" parent="1">
          <mxGeometry x="365" y="20" width="120" height="80" as="geometry" />
        </mxCell>
        <mxCell id="cfagDybKH4BVyeTPszlw-8" style="edgeStyle=orthogonalEdgeStyle;rounded=0;orthogonalLoop=1;jettySize=auto;html=1;entryX=0.5;entryY=1;entryDx=0;entryDy=0;entryPerimeter=0;flowAnimation=1;" edge="1" parent="1" source="cfagDybKH4BVyeTPszlw-3" target="cfagDybKH4BVyeTPszlw-5">
          <mxGeometry relative="1" as="geometry" />
        </mxCell>
        <mxCell id="cfagDybKH4BVyeTPszlw-9" style="edgeStyle=orthogonalEdgeStyle;rounded=0;orthogonalLoop=1;jettySize=auto;html=1;entryX=1;entryY=0.5;entryDx=0;entryDy=0;entryPerimeter=0;flowAnimation=1;" edge="1" parent="1" source="cfagDybKH4BVyeTPszlw-4" target="cfagDybKH4BVyeTPszlw-5">
          <mxGeometry relative="1" as="geometry" />
        </mxCell>
        <mxCell id="cfagDybKH4BVyeTPszlw-10" style="edgeStyle=orthogonalEdgeStyle;rounded=0;orthogonalLoop=1;jettySize=auto;html=1;entryX=0.5;entryY=1;entryDx=0;entryDy=0;entryPerimeter=0;flowAnimation=1;" edge="1" parent="1" source="cfagDybKH4BVyeTPszlw-5" target="cfagDybKH4BVyeTPszlw-6">
          <mxGeometry relative="1" as="geometry" />
        </mxCell>
        <mxCell id="cfagDybKH4BVyeTPszlw-13" style="edgeStyle=orthogonalEdgeStyle;rounded=0;orthogonalLoop=1;jettySize=auto;html=1;entryX=0;entryY=0.5;entryDx=0;entryDy=0;entryPerimeter=0;flowAnimation=1;" edge="1" parent="1" source="cfagDybKH4BVyeTPszlw-2" target="cfagDybKH4BVyeTPszlw-5">
          <mxGeometry relative="1" as="geometry" />
        </mxCell>
        <mxCell id="cfagDybKH4BVyeTPszlw-14" value="Domain: MyDFIR&lt;div&gt;Network: 192.168.10.0/24&lt;/div&gt;&lt;div&gt;Splunk Server:192.168.10.10&lt;/div&gt;&lt;div&gt;Active Directory:192.168.10.7&lt;/div&gt;&lt;div&gt;Attacker:192.168.10.250&lt;/div&gt;" style="text;html=1;align=center;verticalAlign=middle;resizable=0;points=[];autosize=1;strokeColor=none;fillColor=none;" vertex="1" parent="1">
          <mxGeometry x="30" y="-2" width="180" height="90" as="geometry" />
        </mxCell>
      </root>
    </mxGraphModel>
  </diagram>
</mxfile>
